<svg xmlns="http://www.w3.org/2000/svg" width="512" height="512" viewBox="0 0 512 512" version="1.1"><path d="" stroke="none" fill="#080404" fill-rule="evenodd"/><path d="M 0 256 L 0 498 57.500 498 L 115 498 115 288.416 L 115 78.831 229.250 192.390 L 343.500 305.949 343.756 230.233 L 344.013 154.518 273.759 84.259 L 203.505 14 101.753 14 L 0 14 0 256 M 397 223.593 L 397 433.187 282.750 319.500 L 168.500 205.814 168.244 281.648 L 167.987 357.482 238.241 427.741 L 308.495 498 410.247 498 L 512 498 512 256 L 512 14 454.500 14 L 397 14 397 223.593" stroke="none" fill="#040404" fill-rule="evenodd"/></svg>